<svg width="128" height="128" viewBox="0 0 128 128" fill="none" xmlns="http://www.w3.org/2000/svg">
<rect width="128" height="128" rx="20" fill="#83CD29"/>
<path d="M63.9821 109C62.7825 109 61.5649 108.679 60.5085 108.071L49.4611 101.553C47.8138 100.624 48.6195 100.303 49.1567 100.124C51.359 99.3562 51.8066 99.1955 54.1522 97.856C54.4029 97.7132 54.7252 97.7667 54.9758 97.9275L63.4629 102.946C63.7672 103.124 64.197 103.124 64.4834 102.946L97.5542 83.9082C97.8586 83.7296 98.0555 83.3725 98.0555 83.0153V44.9401C98.0555 44.565 97.8586 44.2257 97.5363 44.0293L64.4834 25.0095C64.1791 24.8309 63.7672 24.8309 63.4629 25.0095L30.4279 44.0471C30.1056 44.2257 29.9087 44.5829 29.9087 44.9579V83.0153C29.9087 83.3725 30.1056 83.7296 30.4279 83.8904L39.4879 89.1052C44.4118 91.5518 47.4199 88.6766 47.4199 85.7655V48.1904C47.4199 47.6546 47.8496 47.2439 48.3868 47.2439H52.5765C53.0958 47.2439 53.5434 47.6546 53.5434 48.1904V85.7834C53.5434 92.3198 49.9624 96.0701 43.7493 96.0701C41.8335 96.0701 40.3295 96.0701 36.1397 93.9985L27.4736 89.0159C25.325 87.7836 24 85.4798 24 82.9974V44.9401C24 42.4755 25.325 40.1539 27.4736 38.9216L60.5085 19.884C62.6034 18.7053 65.3787 18.7053 67.4557 19.884L100.526 38.9395C102.675 40.1717 104 42.4755 104 44.9579V83.0153C104 85.4798 102.675 87.7836 100.526 89.0337L67.4557 108.071C66.3993 108.679 65.1996 109 63.9821 109ZM90.6786 71.4784C90.6786 64.3527 85.8442 62.4597 75.692 61.1202C65.4145 59.763 64.376 59.0665 64.376 56.6734C64.376 54.691 65.2534 52.0479 72.863 52.0479C79.6491 52.0479 82.1558 53.5123 83.1943 58.0842C83.2838 58.5128 83.6777 58.8343 84.1253 58.8343H88.4226C88.6911 58.8343 88.9418 58.7271 89.1209 58.5307C89.2999 58.3343 89.3894 58.0664 89.3715 57.7985C88.709 49.9227 83.4628 46.2616 72.863 46.2616C63.427 46.2616 57.8048 50.2263 57.8048 56.8877C57.8048 64.1027 63.4091 66.1029 72.4512 66.9958C83.2838 68.0495 84.1253 69.639 84.1253 71.7642C84.1253 75.4431 81.1531 77.0147 74.188 77.0147C65.4324 77.0147 63.5166 74.818 62.872 70.4783C62.8004 70.014 62.4064 69.6747 61.923 69.6747H57.6437C57.1065 69.6747 56.6947 70.1033 56.6947 70.6212C56.6947 76.1753 59.7207 82.801 74.2059 82.801C84.6625 82.7831 90.6786 78.6577 90.6786 71.4784Z" fill="white"/>
</svg>
